<svg xmlns="http://www.w3.org/2000/svg" viewBox="0 0 1400 900" role="img" aria-label="AnyConnector website mockup">
  <defs>
    <linearGradient id="grad1" x1="0%" y1="0%" x2="100%" y2="100%">
      <stop offset="0%" style="stop-color:#667eea;stop-opacity:1" />
      <stop offset="100%" style="stop-color:#764ba2;stop-opacity:1" />
    </linearGradient>
  </defs>
  <rect width="1400" height="900" fill="#0f172a"/>
  <rect width="1400" height="80" fill="#1e293b"/>
  <circle cx="50" cy="40" r="20" fill="#667eea"/>
  <rect x="100" y="30" width="100" height="20" fill="#94a3b8" rx="4"/>
  <rect x="250" y="30" width="100" height="20" fill="#64748b" rx="4"/>
  <rect x="400" y="30" width="100" height="20" fill="#64748b" rx="4"/>
  <rect x="1200" y="25" width="150" height="30" fill="#667eea" rx="6"/>
  <text x="1275" y="48" font-family="Arial" font-size="14" fill="#fff" text-anchor="middle">Get Started</text>
  
  <rect x="80" y="150" width="600" height="200" fill="none" stroke="#667eea" stroke-width="2" rx="8" opacity="0.3"/>
  <text x="100" y="200" font-family="Arial" font-size="48" font-weight="bold" fill="#fff">Connect Your</text>
  <text x="100" y="260" font-family="Arial" font-size="48" font-weight="bold" fill="#fff">Business Today</text>
  <rect x="100" y="300" width="300" height="40" fill="#667eea" rx="6"/>
  <text x="250" y="328" font-family="Arial" font-size="16" fill="#fff" text-anchor="middle">Start Your Free Trial →</text>
  
  <rect x="850" y="120" width="450" height="320" fill="#1e293b" rx="12" stroke="#64748b" stroke-width="1"/>
  <rect x="870" y="140" width="150" height="80" fill="url(#grad1)" rx="6" opacity="0.8"/>
  <text x="945" y="190" font-family="Arial" font-size="14" fill="#fff" text-anchor="middle">Integration Hub</text>
  <rect x="1050" y="140" width="150" height="80" fill="#334155" rx="6"/>
  <text x="1125" y="190" font-family="Arial" font-size="14" fill="#94a3b8" text-anchor="middle">Analytics</text>
  
  <circle cx="950" cy="270" r="15" fill="#667eea"/>
  <circle cx="1020" cy="290" r="15" fill="#667eea" opacity="0.6"/>
  <circle cx="1090" cy="270" r="15" fill="#667eea" opacity="0.4"/>
  
  <rect x="80" y="480" width="250" height="150" fill="#1e293b" rx="8" border="1px solid #334155"/>
  <rect x="100" y="500" width="40" height="40" fill="#667eea" rx="4"/>
  <text x="160" y="520" font-family="Arial" font-size="14" font-weight="bold" fill="#fff">Fast Setup</text>
  <text x="100" y="550" font-family="Arial" font-size="12" fill="#94a3b8">Deploy in minutes</text>
  <text x="100" y="570" font-family="Arial" font-size="12" fill="#94a3b8">with our platform</text>
  
  <rect x="400" y="480" width="250" height="150" fill="#1e293b" rx="8" border="1px solid #334155"/>
  <rect x="420" y="500" width="40" height="40" fill="#667eea" rx="4"/>
  <text x="480" y="520" font-family="Arial" font-size="14" font-weight="bold" fill="#fff">24/7 Support</text>
  <text x="420" y="550" font-family="Arial" font-size="12" fill="#94a3b8">Expert help when</text>
  <text x="420" y="570" font-family="Arial" font-size="12" fill="#94a3b8">you need it</text>
  
  <rect x="720" y="480" width="250" height="150" fill="#1e293b" rx="8" border="1px solid #334155"/>
  <rect x="740" y="500" width="40" height="40" fill="#667eea" rx="4"/>
  <text x="800" y="520" font-family="Arial" font-size="14" font-weight="bold" fill="#fff">Scalable</text>
  <text x="740" y="550" font-family="Arial" font-size="12" fill="#94a3b8">Grows with your</text>
  <text x="740" y="570" font-family="Arial" font-size="12" fill="#94a3b8">business needs</text>
  
  <text x="700" y="800" font-family="Arial" font-size="12" fill="#64748b" text-anchor="middle">© 2024 AnyConnector. All rights reserved.</text>
</svg>
