<svg xmlns="http://www.w3.org/2000/svg" viewBox="0 0 1400 900" role="img" aria-label="Plum Accounting website mockup">
  <defs>
    <linearGradient id="acctGrad" x1="0%" y1="0%" x2="100%" y2="100%">
      <stop offset="0%" style="stop-color:#10b981;stop-opacity:1" />
      <stop offset="100%" style="stop-color:#059669;stop-opacity:1" />
    </linearGradient>
  </defs>
  <rect width="1400" height="900" fill="#f8fafc"/>
  <rect width="1400" height="80" fill="#fff" stroke="#e2e8f0" stroke-width="1"/>
  <circle cx="50" cy="40" r="15" fill="#10b981"/>
  <text x="90" y="50" font-family="Arial" font-size="18" font-weight="bold" fill="#1e293b">Plum Accounting</text>
  <rect x="1100" y="25" width="280" height="30" fill="#10b981" rx="6"/>
  <text x="1240" y="48" font-family="Arial" font-size="14" fill="#fff" text-anchor="middle">Book a Demo →</text>
  
  <text x="100" y="200" font-family="Arial" font-size="56" font-weight="bold" fill="#1e293b">Professional</text>
  <text x="100" y="270" font-family="Arial" font-size="56" font-weight="bold" fill="#1e293b">Accounting Made</text>
  <text x="100" y="340" font-family="Arial" font-size="56" font-weight="bold" fill="#10b981">Simple</text>
  <text x="100" y="390" font-family="Arial" font-size="18" fill="#64748b" font-weight="300">Streamline your finances with our intuitive platform</text>
  
  <rect x="850" y="160" width="450" height="280" fill="#f1f5f9" rx="12" stroke="#e2e8f0" stroke-width="1"/>
  <rect x="870" y="180" width="150" height="60" fill="url(#acctGrad)" rx="6"/>
  <text x="945" y="220" font-family="Arial" font-size="12" fill="#fff" text-anchor="middle" font-weight="bold">Invoicing</text>
  
  <rect x="1050" y="180" width="150" height="60" fill="#f0fdf4" rx="6" stroke="#86efac" stroke-width="1"/>
  <text x="1125" y="220" font-family="Arial" font-size="12" fill="#059669" text-anchor="middle" font-weight="bold">Reports</text>
  
  <rect x="870" y="270" width="150" height="60" fill="#f0fdf4" rx="6" stroke="#86efac" stroke-width="1"/>
  <text x="945" y="310" font-family="Arial" font-size="12" fill="#059669" text-anchor="middle" font-weight="bold">Expenses</text>
  
  <rect x="1050" y="270" width="150" height="60" fill="#f0fdf4" rx="6" stroke="#86efac" stroke-width="1"/>
  <text x="1125" y="310" font-family="Arial" font-size="12" fill="#059669" text-anchor="middle" font-weight="bold">Reconciliation</text>
  
  <rect x="80" y="480" width="280" height="160" fill="#f0fdf4" rx="8" stroke="#d1fae5" stroke-width="1"/>
  <rect x="100" y="500" width="45" height="45" fill="#10b981" rx="4"/>
  <text x="165" y="520" font-family="Arial" font-size="16" font-weight="bold" fill="#1e293b">Tax Ready</text>
  <text x="100" y="550" font-family="Arial" font-size="13" fill="#475569">Organize documents</text>
  <text x="100" y="570" font-family="Arial" font-size="13" fill="#475569">and prepare for audits</text>
  
  <rect x="420" y="480" width="280" height="160" fill="#f0fdf4" rx="8" stroke="#d1fae5" stroke-width="1"/>
  <rect x="440" y="500" width="45" height="45" fill="#10b981" rx="4"/>
  <text x="505" y="520" font-family="Arial" font-size="16" font-weight="bold" fill="#1e293b">Secure</text>
  <text x="440" y="550" font-family="Arial" font-size="13" fill="#475569">Bank-level encryption</text>
  <text x="440" y="570" font-family="Arial" font-size="13" fill="#475569">for your data</text>
  
  <rect x="760" y="480" width="280" height="160" fill="#f0fdf4" rx="8" stroke="#d1fae5" stroke-width="1"/>
  <rect x="780" y="500" width="45" height="45" fill="#10b981" rx="4"/>
  <text x="845" y="520" font-family="Arial" font-size="16" font-weight="bold" fill="#1e293b">Support</text>
  <text x="780" y="550" font-family="Arial" font-size="13" fill="#475569">Expert guidance</text>
  <text x="780" y="570" font-family="Arial" font-size="13" fill="#475569">whenever needed</text>
  
  <text x="700" y="800" font-family="Arial" font-size="12" fill="#94a3b8" text-anchor="middle">Trusted by hundreds of businesses | Certified & Secure</text>
</svg>
