<svg xmlns="http://www.w3.org/2000/svg" viewBox="0 0 1400 900" role="img" aria-label="Plum Payroll website mockup">
  <defs>
    <linearGradient id="payrollGrad" x1="0%" y1="0%" x2="100%" y2="100%">
      <stop offset="0%" style="stop-color:#3b82f6;stop-opacity:1" />
      <stop offset="100%" style="stop-color:#1e40af;stop-opacity:1" />
    </linearGradient>
  </defs>
  <rect width="1400" height="900" fill="#0f172a"/>
  <rect width="1400" height="80" fill="#1e293b"/>
  <circle cx="50" cy="40" r="18" fill="#3b82f6"/>
  <text x="90" y="55" font-family="Arial" font-size="18" font-weight="bold" fill="#fff">Plum Payroll</text>
  <rect x="1100" y="25" width="280" height="30" fill="#3b82f6" rx="6"/>
  <text x="1240" y="48" font-family="Arial" font-size="14" fill="#fff" text-anchor="middle">Schedule Demo →</text>
  
  <text x="100" y="200" font-family="Arial" font-size="52" font-weight="bold" fill="#fff">Payroll Made</text>
  <text x="100" y="270" font-family="Arial" font-size="52" font-weight="bold" fill="#3b82f6">Simple & Fast</text>
  <text x="100" y="330" font-family="Arial" font-size="18" fill="#cbd5e1">Automate payroll, save time, ensure compliance</text>
  <rect x="100" y="370" width="200" height="45" fill="#3b82f6" rx="6"/>
  <text x="200" y="400" font-family="Arial" font-size="14" fill="#fff" text-anchor="middle" font-weight="600">Get Started Free</text>
  
  <rect x="850" y="140" width="450" height="300" fill="#1e293b" rx="12" stroke="#334155" stroke-width="1"/>
  <text x="870" y="170" font-family="Arial" font-size="14" fill="#94a3b8" font-weight="bold">Dashboard Overview</text>
  
  <g>
    <rect x="870" y="190" width="80" height="60" fill="url(#payrollGrad)" rx="4" opacity="0.8"/>
    <text x="910" y="210" font-family="Arial" font-size="11" fill="#fff" text-anchor="middle" font-weight="bold">$45,230</text>
    <text x="910" y="235" font-family="Arial" font-size="10" fill="#cbd5e1" text-anchor="middle">This Month</text>
    
    <rect x="1000" y="190" width="80" height="60" fill="#334155" rx="4"/>
    <text x="1040" y="210" font-family="Arial" font-size="11" fill="#cbd5e1" text-anchor="middle" font-weight="bold">156</text>
    <text x="1040" y="235" font-family="Arial" font-size="10" fill="#94a3b8" text-anchor="middle">Employees</text>
    
    <rect x="1130" y="190" width="80" height="60" fill="#334155" rx="4"/>
    <text x="1170" y="210" font-family="Arial" font-size="11" fill="#cbd5e1" text-anchor="middle" font-weight="bold">100%</text>
    <text x="1170" y="235" font-family="Arial" font-size="10" fill="#94a3b8" text-anchor="middle">On Time</text>
  </g>
  
  <rect x="870" y="280" width="210" height="140" fill="#334155" rx="4" stroke="#475569" stroke-width="1"/>
  <text x="885" y="300" font-family="Arial" font-size="12" fill="#cbd5e1" font-weight="bold">Recent Payrolls</text>
  <line x1="885" y1="310" x2="1070" y2="310" stroke="#475569" stroke-width="1"/>
  
  <circle cx="895" cy="330" r="4" fill="#3b82f6"/>
  <text x="910" y="335" font-family="Arial" font-size="11" fill="#cbd5e1">May 31 - $45,230 ✓</text>
  
  <circle cx="895" cy="360" r="4" fill="#3b82f6"/>
  <text x="910" y="365" font-family="Arial" font-size="11" fill="#cbd5e1">May 15 - $44,890 ✓</text>
  
  <circle cx="895" cy="390" r="4" fill="#3b82f6"/>
  <text x="910" y="395" font-family="Arial" font-size="11" fill="#cbd5e1">May 1 - $45,120 ✓</text>
  
  <rect x="80" y="480" width="280" height="160" fill="#1e293b" rx="8" border="1px solid #334155"/>
  <rect x="100" y="500" width="45" height="45" fill="#3b82f6" rx="4"/>
  <text x="165" y="520" font-family="Arial" font-size="15" font-weight="bold" fill="#fff">Automated</text>
  <text x="100" y="550" font-family="Arial" font-size="12" fill="#94a3b8">Set it and forget it.</text>
  <text x="100" y="570" font-family="Arial" font-size="12" fill="#94a3b8">Pay runs on schedule</text>
  
  <rect x="420" y="480" width="280" height="160" fill="#1e293b" rx="8" border="1px solid #334155"/>
  <rect x="440" y="500" width="45" height="45" fill="#3b82f6" rx="4"/>
  <text x="505" y="520" font-family="Arial" font-size="15" font-weight="bold" fill="#fff">Compliant</text>
  <text x="440" y="550" font-family="Arial" font-size="12" fill="#94a3b8">Stay compliant with all</text>
  <text x="440" y="570" font-family="Arial" font-size="12" fill="#94a3b8">tax regulations</text>
  
  <rect x="760" y="480" width="280" height="160" fill="#1e293b" rx="8" border="1px solid #334155"/>
  <rect x="780" y="500" width="45" height="45" fill="#3b82f6" rx="4"/>
  <text x="845" y="520" font-family="Arial" font-size="15" font-weight="bold" fill="#fff">Instant Reports</text>
  <text x="780" y="550" font-family="Arial" font-size="12" fill="#94a3b8">Generate detailed</text>
  <text x="780" y="570" font-family="Arial" font-size="12" fill="#94a3b8">payroll reports</text>
  
  <text x="700" y="800" font-family="Arial" font-size="12" fill="#64748b" text-anchor="middle">Trusted by 2000+ companies | SOC 2 Certified | GDPR Compliant</text>
</svg>
